PathFileType	4	(X/Y/Z)	./resultDataOpenSim/trcMotMarkerGrf/sub09/qtm-02-08.trc
DataRate	CameraRate	NumFrames	NumMarkers	Units	OrigDataRate	OrigDataStartFrame	OrigNumFrames
250.000000	250.000000	7	24	m	250.000000	367	489
Frame#	Time	L.Toe.Tip			R.Toe.Tip			L.Ankle.Lat			R.Ankle.Lat			L.Ankle.Med			R.Ankle.Med			L.Heel			R.Heel			L.Knee.Lat			R.Knee.Lat			L.Knee.Med			R.Knee.Med			L.Thigh.Upper			R.Thigh.Upper			L.ASIS			R.ASIS			V.Sacral			L.Acromium			R.Acromium			C7			L.Elbow			R.Elbow			L.Wrist.Lat			R.Wrist.Lat
		X1	Y1	Z1	X2	Y2	Z2	X3	Y3	Z3	X4	Y4	Z4	X5	Y5	Z5	X6	Y6	Z6	X7	Y7	Z7	X8	Y8	Z8	X9	Y9	Z9	X10	Y10	Z10	X11	Y11	Z11	X12	Y12	Z12	X13	Y13	Z13	X14	Y14	Z14	X15	Y15	Z15	X16	Y16	Z16	X17	Y17	Z17	X18	Y18	Z18	X19	Y19	Z19	X20	Y20	Z20	X21	Y21	Z21	X22	Y22	Z22	X23	Y23	Z23	X24	Y24	Z24

367	1.464	0.95965609	0.10296039	-0.045046882	1.0481785	0.039276311	0.076018372	0.8541378	0.21116889	-0.069997242	0.90160519	0.056729042	0.11866877	0.88843611	0.20710276	0.022462565	0.90907972	0.094931302	0.026046903	0.77456781	0.21450919	-0.01931163	0.83139182	0.038322446	0.073547201	1.1301179	0.51345042	-0.10237197	1.0205722	0.49976761	0.17263131	1.1654407	0.50815362	0.029581764	0.99346959	0.49122725	0.048197168	0.96528798	0.89494853	-0.12940291	0.96260646	0.90385253	0.24179554	1.0349728	0.98421324	-0.071628454	1.0474436	0.99238885	0.16661105	0.87100554	1.0383112	0.050715055	1.0043195	1.4406247	-0.12780457	1.0079634	1.4518541	0.20422395	0.93509221	1.4922458	0.04092151	0.86646959	1.0968923	-0.16301755	0.88633135	1.1052824	0.30005601	0.98464241	0.86491309	-0.20625342	1.0702649	0.89849221	0.27562086
368	1.468	0.97802397	0.10089803	-0.044937957	1.0483773	0.0392785	0.075958358	0.86982139	0.20637028	-0.070147852	0.90168258	0.056959105	0.11860549	0.90386926	0.20324036	0.022443274	0.90893807	0.095074175	0.025846619	0.79014934	0.20782071	-0.019861585	0.83136381	0.038694844	0.073326118	1.1391457	0.51510626	-0.10217745	1.0219414	0.49975375	0.1728785	1.1734057	0.51011784	0.029459092	0.99500638	0.49116458	0.048449483	0.9716889	0.89564499	-0.1296166	0.96701572	0.90428976	0.24186914	1.0407321	0.98486894	-0.071447721	1.0527474	0.99276112	0.16677127	0.87657158	1.0387571	0.050428301	1.0094661	1.4410209	-0.12795553	1.0135154	1.4525224	0.20407745	0.94043496	1.4927154	0.040854983	0.87030259	1.0979704	-0.1631316	0.89239157	1.1056849	0.30036255	0.98660745	0.86532278	-0.20735795	1.0775935	0.90003361	0.27472094
369	1.472	0.99643629	0.098834756	-0.044840347	1.0485603	0.039248766	0.075902181	0.88565336	0.20148768	-0.070303669	0.90179256	0.057188641	0.11853493	0.91941924	0.19930135	0.022429342	0.90879158	0.095196587	0.025674484	0.80598102	0.20103301	-0.020419601	0.83137048	0.039074348	0.073125198	1.1479581	0.51655595	-0.10199164	1.0232422	0.49975088	0.17308866	1.1798597	0.51184799	0.028985872	0.99644065	0.49121408	0.048722439	0.97797067	0.89624537	-0.12978792	0.97081172	0.90463229	0.24216538	1.0464874	0.98544683	-0.071301158	1.0580508	0.99309323	0.16691136	0.88205883	1.0391273	0.050172175	1.0146201	1.4413561	-0.12810623	1.0190559	1.4531248	0.20392845	0.9457855	1.4931516	0.040779259	0.87415359	1.0989993	-0.16325573	0.89845252	1.106022	0.30066877	0.98863353	0.86568245	-0.20846783	1.0848846	0.90151086	0.27383462
370	1.476	1.0148936	0.096803649	-0.044723819	1.0487016	0.039202619	0.075872503	0.90164026	0.19652318	-0.070469143	0.90194354	0.05741254	0.1184462	0.93515131	0.19528957	0.022366792	0.90883485	0.095353723	0.025630463	0.82203183	0.19414027	-0.020959618	0.83143953	0.039469475	0.072959276	1.156539	0.51783887	-0.10183509	1.0244961	0.49975547	0.17328681	1.1844433	0.51332045	0.028063465	0.99779573	0.49134499	0.049066404	0.98425917	0.89675562	-0.12997118	0.97404043	0.90485217	0.24266663	1.0522385	0.98594562	-0.071185986	1.063364	0.99339174	0.16704016	0.8874837	1.0393991	0.049915728	1.0197827	1.4416297	-0.12825674	1.0245789	1.4536583	0.20377456	0.95114538	1.4935395	0.040700187	0.87802322	1.0999762	-0.16338469	0.90451539	1.1062927	0.30097241	0.99071675	0.8660008	-0.20958236	1.092144	0.90292782	0.27296034
371	1.48	1.0334372	0.094835607	-0.044594058	1.0488496	0.039183606	0.075870899	0.91777882	0.19148776	-0.070641908	0.90211251	0.057629747	0.11834181	0.95110246	0.19122454	0.022204052	0.90914824	0.095577784	0.025763649	0.83824102	0.18715033	-0.021447787	0.83153374	0.039860506	0.072765222	1.1649234	0.51905292	-0.10172139	1.025737	0.49976495	0.17350626	1.1871018	0.51452968	0.026678612	0.99909546	0.49152296	0.049496847	0.99059009	0.89718493	-0.13018323	0.97736674	0.9049972	0.2431499	1.0579816	0.98637062	-0.07109797	1.0686917	0.99366034	0.16716061	0.8928614	1.0395514	0.049644702	1.0249565	1.4418453	-0.12840812	1.0300863	1.4541203	0.20361799	0.95650922	1.4938632	0.040619125	0.88191013	1.1008999	-0.1635158	0.91061634	1.106512	0.30129506	0.99284089	0.86630145	-0.21069131	1.0993769	0.9042904	0.27209766
372	1.484	1.0521015	0.092937666	-0.044489693	1.0490359	0.039201765	0.075899603	0.93406388	0.18640348	-0.070817229	0.90225885	0.057847864	0.11823071	0.96731098	0.1871389	0.02189932	0.90968064	0.095897892	0.026035899	0.85457603	0.1800804	-0.021868911	0.8315732	0.040247663	0.072449085	1.1731776	0.52027343	-0.10164474	1.02701	0.49977966	0.17376942	1.1893308	0.51557993	0.025230467	1.0004045	0.4917238	0.049965602	0.99681341	0.89753277	-0.13036966	0.98150514	0.90518481	0.24338175	1.0637188	0.98673265	-0.071032364	1.0740304	0.99389878	0.1672692	0.89823355	1.0396071	0.049371777	1.0301453	1.442009	-0.12856367	1.0355842	1.4545117	0.20346312	0.9618765	1.4941234	0.040531242	0.88581537	1.1017673	-0.1636485	0.91683024	1.1067061	0.30168388	0.99500134	0.86659364	-0.21178363	1.1065841	0.90560127	0.27124753
373	1.488	1.0708791	0.091095458	-0.044438001	1.0492207	0.039223409	0.075962758	0.95049457	0.181297	-0.070990966	0.90235425	0.05808292	0.11811723	0.98379833	0.1830542	0.021471437	0.91026242	0.09632399	0.026279404	0.87106055	0.17294671	-0.02223632	0.83150818	0.04067421	0.071981411	1.1813486	0.52148166	-0.10158754	1.028371	0.49979827	0.1740756	1.1931469	0.51661044	0.02424941	1.0018676	0.49190208	0.050436253	1.002744	0.89779209	-0.13046676	0.9865701	0.90548241	0.2433224	1.0694592	0.98703409	-0.070986604	1.0793684	0.99410093	0.1673605	0.90365547	1.0396141	0.049117328	1.0353541	1.442131	-0.12873216	1.0410806	1.4548358	0.20331848	0.96725091	1.4943307	0.040435589	0.88974483	1.1025727	-0.16378167	0.92318083	1.1068835	0.30215574	0.99721011	0.86686302	-0.21285643	1.1137614	0.90685765	0.27040841
